<svg class="main-svg" xmlns="http://www.w3.org/2000/svg" xmlns:xlink="http://www.w3.org/1999/xlink" width="900" height="550" style="" viewBox="0 0 900 550"><rect x="0" y="0" width="900" height="550" style="fill: rgb(255, 255, 255); fill-opacity: 1;"/><defs id="defs-325e97"><g class="clips"><clipPath id="clip325e97xyplot" class="plotclip"><rect width="734" height="310"/></clipPath><clipPath class="axesclip" id="clip325e97x"><rect x="86" y="0" width="734" height="550"/></clipPath><clipPath class="axesclip" id="clip325e97y"><rect x="0" y="100" width="900" height="310"/></clipPath><clipPath class="axesclip" id="clip325e97xy"><rect x="86" y="100" width="734" height="310"/></clipPath></g><g class="gradients"/><g class="patterns"/></defs><g class="bglayer"/><g class="layer-below"><g class="imagelayer"/><g class="shapelayer"/></g><g class="cartesianlayer"><g class="subplot xy"><g class="layer-subplot"><g class="shapelayer"/><g class="imagelayer"/></g><g class="minor-gridlayer"><g class="x"/><g class="y"/></g><g class="gridlayer"><g class="x"/><g class="y"><path class="ygrid crisp" transform="translate(0,352.52)" d="M86,0h734" style="stroke: rgb(213, 213, 213); stroke-opacity: 1; stroke-width: 0.6px;"/><path class="ygrid crisp" transform="translate(0,291.03999999999996)" d="M86,0h734" style="stroke: rgb(213, 213, 213); stroke-opacity: 1; stroke-width: 0.6px;"/><path class="ygrid crisp" transform="translate(0,229.55)" d="M86,0h734" style="stroke: rgb(213, 213, 213); stroke-opacity: 1; stroke-width: 0.6px;"/><path class="ygrid crisp" transform="translate(0,168.07)" d="M86,0h734" style="stroke: rgb(213, 213, 213); stroke-opacity: 1; stroke-width: 0.6px;"/><path class="ygrid crisp" transform="translate(0,106.58)" d="M86,0h734" style="stroke: rgb(213, 213, 213); stroke-opacity: 1; stroke-width: 0.6px;"/></g></g><g class="zerolinelayer"/><g class="layer-between"><g class="shapelayer"/><g class="imagelayer"/></g><path class="xlines-below"/><path class="ylines-below"/><g class="overlines-below"/><g class="xaxislayer-below"/><g class="yaxislayer-below"/><g class="overaxes-below"/><g class="overplot"><g class="xy" transform="translate(86,100)" clip-path="url(#clip325e97xyplot)"><g class="boxlayer mlayer"><g class="trace boxes" style="opacity: 1;"><path class="box" d="M79.52,170.75H165.15M79.52,209.48H165.15V134.96H79.52ZM122.33,209.48V288.69M122.33,134.96V23.19M100.93,288.69H143.74M100.93,23.19H143.74" style="vector-effect: none; stroke-width: 2px; stroke: rgb(0, 63, 92); stroke-opacity: 1; fill: rgb(0, 63, 92); fill-opacity: 0.5;"/><path class="box" d="M324.18,191.04H409.82M324.18,223.94H409.82V161.77H324.18ZM367,223.94V288.43M367,161.77V70.53M345.59,288.43H388.41M345.59,70.53H388.41" style="vector-effect: none; stroke-width: 2px; stroke: rgb(0, 63, 92); stroke-opacity: 1; fill: rgb(0, 63, 92); fill-opacity: 0.5;"/><path class="box" d="M568.85,209.72H654.48M568.85,247.5H654.48V159.88H568.85ZM611.67,247.5V294.5M611.67,159.88V40.77M590.26,294.5H633.07M590.26,40.77H633.07" style="vector-effect: none; stroke-width: 2px; stroke: rgb(0, 63, 92); stroke-opacity: 1; fill: rgb(0, 63, 92); fill-opacity: 0.5;"/><g class="points"><path class="point" transform="translate(122.33,22.63)" d="M3,0A3,3 0 1,1 0,-3A3,3 0 0,1 3,0Z" style="opacity: 0.7; stroke-width: 1px; fill: rgb(255, 215, 0); fill-opacity: 1; stroke: rgb(0, 63, 92); stroke-opacity: 1;"/><path class="point" transform="translate(122.33,22.63)" d="M3,0A3,3 0 1,1 0,-3A3,3 0 0,1 3,0Z" style="opacity: 0.7; stroke-width: 1px; fill: rgb(255, 215, 0); fill-opacity: 1; stroke: rgb(0, 63, 92); stroke-opacity: 1;"/><path class="point" transform="translate(122.33,22.63)" d="M3,0A3,3 0 1,1 0,-3A3,3 0 0,1 3,0Z" style="opacity: 0.7; stroke-width: 1px; fill: rgb(255, 215, 0); fill-opacity: 1; stroke: rgb(0, 63, 92); stroke-opacity: 1;"/><path class="point" transform="translate(122.33,22.63)" d="M3,0A3,3 0 1,1 0,-3A3,3 0 0,1 3,0Z" style="opacity: 0.7; stroke-width: 1px; fill: rgb(255, 215, 0); fill-opacity: 1; stroke: rgb(0, 63, 92); stroke-opacity: 1;"/><path class="point" transform="translate(122.33,22.49)" d="M3,0A3,3 0 1,1 0,-3A3,3 0 0,1 3,0Z" style="opacity: 0.7; stroke-width: 1px; fill: rgb(255, 215, 0); fill-opacity: 1; stroke: rgb(0, 63, 92); stroke-opacity: 1;"/><path class="point" transform="translate(122.33,21.34)" d="M3,0A3,3 0 1,1 0,-3A3,3 0 0,1 3,0Z" style="opacity: 0.7; stroke-width: 1px; fill: rgb(255, 215, 0); fill-opacity: 1; stroke: rgb(0, 63, 92); stroke-opacity: 1;"/><path class="point" transform="translate(122.33,21.11)" d="M3,0A3,3 0 1,1 0,-3A3,3 0 0,1 3,0Z" style="opacity: 0.7; stroke-width: 1px; fill: rgb(255, 215, 0); fill-opacity: 1; stroke: rgb(0, 63, 92); stroke-opacity: 1;"/><path class="point" transform="translate(122.33,21.11)" d="M3,0A3,3 0 1,1 0,-3A3,3 0 0,1 3,0Z" style="opacity: 0.7; stroke-width: 1px; fill: rgb(255, 215, 0); fill-opacity: 1; stroke: rgb(0, 63, 92); stroke-opacity: 1;"/><path class="point" transform="translate(122.33,20.48)" d="M3,0A3,3 0 1,1 0,-3A3,3 0 0,1 3,0Z" style="opacity: 0.7; stroke-width: 1px; fill: rgb(255, 215, 0); fill-opacity: 1; stroke: rgb(0, 63, 92); stroke-opacity: 1;"/><path class="point" transform="translate(122.33,20.05)" d="M3,0A3,3 0 1,1 0,-3A3,3 0 0,1 3,0Z" style="opacity: 0.7; stroke-width: 1px; fill: rgb(255, 215, 0); fill-opacity: 1; stroke: rgb(0, 63, 92); stroke-opacity: 1;"/><path class="point" transform="translate(122.33,19.13)" d="M3,0A3,3 0 1,1 0,-3A3,3 0 0,1 3,0Z" style="opacity: 0.7; stroke-width: 1px; fill: rgb(255, 215, 0); fill-opacity: 1; stroke: rgb(0, 63, 92); stroke-opacity: 1;"/><path class="point" transform="translate(122.33,18.88)" d="M3,0A3,3 0 1,1 0,-3A3,3 0 0,1 3,0Z" style="opacity: 0.7; stroke-width: 1px; fill: rgb(255, 215, 0); fill-opacity: 1; stroke: rgb(0, 63, 92); stroke-opacity: 1;"/><path class="point" transform="translate(122.33,18.88)" d="M3,0A3,3 0 1,1 0,-3A3,3 0 0,1 3,0Z" style="opacity: 0.7; stroke-width: 1px; fill: rgb(255, 215, 0); fill-opacity: 1; stroke: rgb(0, 63, 92); stroke-opacity: 1;"/><path class="point" transform="translate(122.33,18.88)" d="M3,0A3,3 0 1,1 0,-3A3,3 0 0,1 3,0Z" style="opacity: 0.7; stroke-width: 1px; fill: rgb(255, 215, 0); fill-opacity: 1; stroke: rgb(0, 63, 92); stroke-opacity: 1;"/><path class="point" transform="translate(122.33,18.88)" d="M3,0A3,3 0 1,1 0,-3A3,3 0 0,1 3,0Z" style="opacity: 0.7; stroke-width: 1px; fill: rgb(255, 215, 0); fill-opacity: 1; stroke: rgb(0, 63, 92); stroke-opacity: 1;"/><path class="point" transform="translate(122.33,18.88)" d="M3,0A3,3 0 1,1 0,-3A3,3 0 0,1 3,0Z" style="opacity: 0.7; stroke-width: 1px; fill: rgb(255, 215, 0); fill-opacity: 1; stroke: rgb(0, 63, 92); stroke-opacity: 1;"/><path class="point" transform="translate(122.33,18.88)" d="M3,0A3,3 0 1,1 0,-3A3,3 0 0,1 3,0Z" style="opacity: 0.7; stroke-width: 1px; fill: rgb(255, 215, 0); fill-opacity: 1; stroke: rgb(0, 63, 92); stroke-opacity: 1;"/><path class="point" transform="translate(122.33,18.76)" d="M3,0A3,3 0 1,1 0,-3A3,3 0 0,1 3,0Z" style="opacity: 0.7; stroke-width: 1px; fill: rgb(255, 215, 0); fill-opacity: 1; stroke: rgb(0, 63, 92); stroke-opacity: 1;"/><path class="point" transform="translate(122.33,18.76)" d="M3,0A3,3 0 1,1 0,-3A3,3 0 0,1 3,0Z" style="opacity: 0.7; stroke-width: 1px; fill: rgb(255, 215, 0); fill-opacity: 1; stroke: rgb(0, 63, 92); stroke-opacity: 1;"/><path class="point" transform="translate(122.33,18.76)" d="M3,0A3,3 0 1,1 0,-3A3,3 0 0,1 3,0Z" style="opacity: 0.7; stroke-width: 1px; fill: rgb(255, 215, 0); fill-opacity: 1; stroke: rgb(0, 63, 92); stroke-opacity: 1;"/><path class="point" transform="translate(122.33,18.76)" d="M3,0A3,3 0 1,1 0,-3A3,3 0 0,1 3,0Z" style="opacity: 0.7; stroke-width: 1px; fill: rgb(255, 215, 0); fill-opacity: 1; stroke: rgb(0, 63, 92); stroke-opacity: 1;"/><path class="point" transform="translate(122.33,18.14)" d="M3,0A3,3 0 1,1 0,-3A3,3 0 0,1 3,0Z" style="opacity: 0.7; stroke-width: 1px; fill: rgb(255, 215, 0); fill-opacity: 1; stroke: rgb(0, 63, 92); stroke-opacity: 1;"/><path class="point" transform="translate(122.33,18.14)" d="M3,0A3,3 0 1,1 0,-3A3,3 0 0,1 3,0Z" style="opacity: 0.7; stroke-width: 1px; fill: rgb(255, 215, 0); fill-opacity: 1; stroke: rgb(0, 63, 92); stroke-opacity: 1;"/><path class="point" transform="translate(122.33,17.04)" d="M3,0A3,3 0 1,1 0,-3A3,3 0 0,1 3,0Z" style="opacity: 0.7; stroke-width: 1px; fill: rgb(255, 215, 0); fill-opacity: 1; stroke: rgb(0, 63, 92); stroke-opacity: 1;"/><path class="point" transform="translate(122.33,17.04)" d="M3,0A3,3 0 1,1 0,-3A3,3 0 0,1 3,0Z" style="opacity: 0.7; stroke-width: 1px; fill: rgb(255, 215, 0); fill-opacity: 1; stroke: rgb(0, 63, 92); stroke-opacity: 1;"/><path class="point" transform="translate(122.33,15.81)" d="M3,0A3,3 0 1,1 0,-3A3,3 0 0,1 3,0Z" style="opacity: 0.7; stroke-width: 1px; fill: rgb(255, 215, 0); fill-opacity: 1; stroke: rgb(0, 63, 92); stroke-opacity: 1;"/><path class="point" transform="translate(122.33,15.81)" d="M3,0A3,3 0 1,1 0,-3A3,3 0 0,1 3,0Z" style="opacity: 0.7; stroke-width: 1px; fill: rgb(255, 215, 0); fill-opacity: 1; stroke: rgb(0, 63, 92); stroke-opacity: 1;"/><path class="point" transform="translate(122.33,15.81)" d="M3,0A3,3 0 1,1 0,-3A3,3 0 0,1 3,0Z" style="opacity: 0.7; stroke-width: 1px; fill: rgb(255, 215, 0); fill-opacity: 1; stroke: rgb(0, 63, 92); stroke-opacity: 1;"/><path class="point" transform="translate(122.33,15.81)" d="M3,0A3,3 0 1,1 0,-3A3,3 0 0,1 3,0Z" style="opacity: 0.7; stroke-width: 1px; fill: rgb(255, 215, 0); fill-opacity: 1; stroke: rgb(0, 63, 92); stroke-opacity: 1;"/><path class="point" transform="translate(122.33,15.5)" d="M3,0A3,3 0 1,1 0,-3A3,3 0 0,1 3,0Z" style="opacity: 0.7; stroke-width: 1px; fill: rgb(255, 215, 0); fill-opacity: 1; stroke: rgb(0, 63, 92); stroke-opacity: 1;"/></g><g class="points"><path class="point" transform="translate(367,68.07)" d="M3,0A3,3 0 1,1 0,-3A3,3 0 0,1 3,0Z" style="opacity: 0.7; stroke-width: 1px; fill: rgb(255, 215, 0); fill-opacity: 1; stroke: rgb(0, 63, 92); stroke-opacity: 1;"/><path class="point" transform="translate(367,41.02)" d="M3,0A3,3 0 1,1 0,-3A3,3 0 0,1 3,0Z" style="opacity: 0.7; stroke-width: 1px; fill: rgb(255, 215, 0); fill-opacity: 1; stroke: rgb(0, 63, 92); stroke-opacity: 1;"/></g><g class="points"/></g></g></g></g><path class="xlines-above crisp" d="M84,411H822M84,99H822" style="fill: none; stroke-width: 2px; stroke: rgb(88, 80, 141); stroke-opacity: 1;"/><path class="ylines-above crisp" d="M85,100V410M821,100V410" style="fill: none; stroke-width: 2px; stroke: rgb(88, 80, 141); stroke-opacity: 1;"/><g class="overlines-above"/><g class="xaxislayer-above"><g class="xtick"><text text-anchor="end" x="0" y="431.2" transform="translate(208.32999999999998,0) rotate(-30,0,423.2)" style="font-family: Lato, sans-serif; font-size: 16px; fill: rgb(0, 63, 92); fill-opacity: 1; white-space: pre; opacity: 1;">Full-time (> 32 hours)</text></g><g class="xtick"><text text-anchor="end" x="0" y="431.2" transform="translate(453,0) rotate(-30,0,423.2)" style="font-family: Lato, sans-serif; font-size: 16px; fill: rgb(0, 63, 92); fill-opacity: 1; white-space: pre; opacity: 1;">Part-time / full-time</text></g><g class="xtick"><text text-anchor="end" x="0" y="431.2" transform="translate(697.67,0) rotate(-30,0,423.2)" style="font-family: Lato, sans-serif; font-size: 16px; fill: rgb(0, 63, 92); fill-opacity: 1; white-space: pre; opacity: 1;">Part-time ( 32 hours)</text></g></g><g class="yaxislayer-above"><g class="ytick"><text text-anchor="end" x="80.8" y="5.6" transform="translate(0,352.52)" style="font-family: Lato, sans-serif; font-size: 16px; fill: rgb(0, 63, 92); fill-opacity: 1; white-space: pre; opacity: 1;">50K</text></g><g class="ytick"><text text-anchor="end" x="80.8" y="5.6" style="font-family: Lato, sans-serif; font-size: 16px; fill: rgb(0, 63, 92); fill-opacity: 1; white-space: pre; opacity: 1;" transform="translate(0,291.03999999999996)">100K</text></g><g class="ytick"><text text-anchor="end" x="80.8" y="5.6" style="font-family: Lato, sans-serif; font-size: 16px; fill: rgb(0, 63, 92); fill-opacity: 1; white-space: pre; opacity: 1;" transform="translate(0,229.55)">150K</text></g><g class="ytick"><text text-anchor="end" x="80.8" y="5.6" style="font-family: Lato, sans-serif; font-size: 16px; fill: rgb(0, 63, 92); fill-opacity: 1; white-space: pre; opacity: 1;" transform="translate(0,168.07)">200K</text></g><g class="ytick"><text text-anchor="end" x="80.8" y="5.6" style="font-family: Lato, sans-serif; font-size: 16px; fill: rgb(0, 63, 92); fill-opacity: 1; white-space: pre; opacity: 1;" transform="translate(0,106.58)">250K</text></g></g><g class="overaxes-above"/></g></g><g class="polarlayer"/><g class="smithlayer"/><g class="ternarylayer"/><g class="geolayer"/><g class="funnelarealayer"/><g class="pielayer"/><g class="iciclelayer"/><g class="treemaplayer"/><g class="sunburstlayer"/><g class="glimages"/><defs id="topdefs-325e97"><g class="clips"/></defs><g class="layer-above"><g class="imagelayer"/><g class="shapelayer"/></g><g class="infolayer"><g class="g-gtitle"><text class="gtitle" x="45" y="50" text-anchor="start" dy="0em" style="opacity: 1; font-family: Lato, sans-serif; font-size: 30px; fill: rgb(0, 63, 92); fill-opacity: 1; white-space: pre;">Salary Distribution by Employment Type</text></g><g class="g-xtitle"><text class="xtitle" x="453" y="537.292578125" text-anchor="middle" style="opacity: 1; font-family: Lato, sans-serif; font-size: 22px; fill: rgb(0, 63, 92); fill-opacity: 1; white-space: pre;">Employment Type</text></g><g class="g-ytitle"><text class="ytitle" transform="rotate(-90,20.659374999999997,255)" x="20.659374999999997" y="255" text-anchor="middle" style="opacity: 1; font-family: Lato, sans-serif; font-size: 22px; fill: rgb(0, 63, 92); fill-opacity: 1; white-space: pre;">Salary (K $)</text></g></g></svg>