<svg class="main-svg" xmlns="http://www.w3.org/2000/svg" xmlns:xlink="http://www.w3.org/1999/xlink" width="1000" height="600" style="" viewBox="0 0 1000 600"><rect x="0" y="0" width="1000" height="600" style="fill: rgb(255, 255, 255); fill-opacity: 1;"/><defs id="defs-131d28"><g class="clips"><clipPath id="clip131d28xyplot" class="plotclip"><rect width="797" height="398"/></clipPath><clipPath class="axesclip" id="clip131d28x"><rect x="80" y="0" width="797" height="600"/></clipPath><clipPath class="axesclip" id="clip131d28y"><rect x="0" y="100" width="1000" height="398"/></clipPath><clipPath class="axesclip" id="clip131d28xy"><rect x="80" y="100" width="797" height="398"/></clipPath></g><g class="gradients"/><g class="patterns"/></defs><g class="bglayer"/><g class="layer-below"><g class="imagelayer"/><g class="shapelayer"/></g><g class="cartesianlayer"><g class="subplot xy"><g class="layer-subplot"><g class="shapelayer"/><g class="imagelayer"/></g><g class="minor-gridlayer"><g class="x"/><g class="y"/></g><g class="gridlayer"><g class="x"><path class="xgrid crisp" transform="translate(100.97,0)" d="M0,100v398" style="stroke: rgb(211, 211, 211); stroke-opacity: 1; stroke-width: 1px;"/><path class="xgrid crisp" transform="translate(174.38,0)" d="M0,100v398" style="stroke: rgb(211, 211, 211); stroke-opacity: 1; stroke-width: 1px;"/><path class="xgrid crisp" transform="translate(247.79,0)" d="M0,100v398" style="stroke: rgb(211, 211, 211); stroke-opacity: 1; stroke-width: 1px;"/><path class="xgrid crisp" transform="translate(321.2,0)" d="M0,100v398" style="stroke: rgb(211, 211, 211); stroke-opacity: 1; stroke-width: 1px;"/><path class="xgrid crisp" transform="translate(394.61,0)" d="M0,100v398" style="stroke: rgb(211, 211, 211); stroke-opacity: 1; stroke-width: 1px;"/><path class="xgrid crisp" transform="translate(468.01,0)" d="M0,100v398" style="stroke: rgb(211, 211, 211); stroke-opacity: 1; stroke-width: 1px;"/><path class="xgrid crisp" transform="translate(541.4200000000001,0)" d="M0,100v398" style="stroke: rgb(211, 211, 211); stroke-opacity: 1; stroke-width: 1px;"/><path class="xgrid crisp" transform="translate(614.83,0)" d="M0,100v398" style="stroke: rgb(211, 211, 211); stroke-opacity: 1; stroke-width: 1px;"/><path class="xgrid crisp" transform="translate(688.24,0)" d="M0,100v398" style="stroke: rgb(211, 211, 211); stroke-opacity: 1; stroke-width: 1px;"/><path class="xgrid crisp" transform="translate(761.64,0)" d="M0,100v398" style="stroke: rgb(211, 211, 211); stroke-opacity: 1; stroke-width: 1px;"/><path class="xgrid crisp" transform="translate(835.05,0)" d="M0,100v398" style="stroke: rgb(211, 211, 211); stroke-opacity: 1; stroke-width: 1px;"/></g><g class="y"><path class="ygrid crisp" transform="translate(0,405.87)" d="M80,0h797" style="stroke: rgb(211, 211, 211); stroke-opacity: 1; stroke-width: 1px;"/><path class="ygrid crisp" transform="translate(0,335.33000000000004)" d="M80,0h797" style="stroke: rgb(211, 211, 211); stroke-opacity: 1; stroke-width: 1px;"/><path class="ygrid crisp" transform="translate(0,264.78999999999996)" d="M80,0h797" style="stroke: rgb(211, 211, 211); stroke-opacity: 1; stroke-width: 1px;"/><path class="ygrid crisp" transform="translate(0,194.25)" d="M80,0h797" style="stroke: rgb(211, 211, 211); stroke-opacity: 1; stroke-width: 1px;"/><path class="ygrid crisp" transform="translate(0,123.71000000000001)" d="M80,0h797" style="stroke: rgb(211, 211, 211); stroke-opacity: 1; stroke-width: 1px;"/></g></g><g class="zerolinelayer"><path class="yzl zl crisp" transform="translate(0,476.4)" d="M80,0h797" style="stroke: rgb(235, 240, 248); stroke-opacity: 1; stroke-width: 2px;"/></g><g class="layer-between"><g class="shapelayer"/><g class="imagelayer"/></g><path class="xlines-below"/><path class="ylines-below"/><g class="overlines-below"/><g class="xaxislayer-below"/><g class="yaxislayer-below"/><g class="overaxes-below"/><g class="overplot"><g class="xy" transform="translate(80,100)" clip-path="url(#clip131d28xyplot)"><g class="scatterlayer mlayer"><g class="trace scatter trace14dcd6" style="stroke-miterlimit: 2; opacity: 1;"><g class="fills"/><g class="errorbars"/><g class="lines"><path class="js-line" d="M0,278.36Q3.78,284.52 5.24,284C10.08,282.27 8.48,200.1 10.49,200.06C12.08,200.03 14.1,233.41 15.73,252.26C17.65,274.47 15.46,319.78 20.97,324.91C22.45,326.29 24.74,326.29 26.22,324.91C31.76,319.75 28.44,251.92 31.46,251.55C32.91,251.37 35.25,267.95 36.7,267.77C39.84,267.38 38.68,188.52 41.95,188.07C43.4,187.87 44.77,200.05 47.19,202.88C48.68,204.62 50.92,206.57 52.43,205.7C59.93,201.4 56.09,59.68 57.68,59.69C59.68,59.7 53.95,271.4 62.92,289.64C64.46,292.76 66.67,294.54 68.16,293.87C74.13,291.19 71.02,185.34 73.41,185.25C74.91,185.19 76.44,216.18 78.65,227.57C80.18,235.45 82.44,247.47 83.89,247.32C87.13,246.98 87.58,145.02 89.14,145.04C91.23,145.06 92.15,329.81 94.38,329.85C95.9,329.87 97.34,266.55 99.63,243.79C101.14,228.73 103,206.45 104.87,206.41C106.52,206.38 108.43,225.25 110.11,235.33C111.94,246.32 113.9,269.97 115.36,269.89C118.35,269.72 118.75,122.48 120.6,122.47C122.26,122.46 123.8,207.04 125.84,241.68C127.42,268.48 129.23,290.56 131.09,312.92C132.75,332.83 134.65,369.36 136.33,369.35C138.15,369.34 139.55,322.37 141.57,303.04C143.15,287.95 145.07,276.24 146.82,262.84C148.57,249.44 150.18,235.07 152.06,222.63C153.7,211.79 155.66,192.26 157.3,192.3C159.2,192.34 159.09,231.97 162.55,233.21C164,233.73 166.32,227.69 167.79,228.27C172.85,230.27 171.23,313.61 173.03,313.62C174.74,313.63 176.47,261.55 178.28,236.74C179.98,213.45 181.71,169.03 183.52,169.02C185.21,169.01 184.58,219.66 188.76,228.27C190.22,231.27 192.54,230.63 194.01,233.21C196.68,237.9 197.75,246.96 199.25,256.49C201.58,271.27 202.73,313.62 204.49,313.62C206.23,313.62 208.21,279.88 209.74,257.9C211.95,226.19 211.86,141.77 214.98,141.51C216.43,141.39 218.75,166.3 220.22,166.2C222.81,166.02 223.7,88.61 225.47,88.61C227.19,88.61 229.19,132.87 230.71,161.97C232.94,204.64 231.84,292.94 235.95,319.97C237.4,329.52 239.75,339.17 241.2,339.02C244.32,338.69 243.63,268.52 246.44,248.02C247.9,237.38 250.04,224 251.68,224.04C253.56,224.09 255.34,255.83 256.93,255.78C258.92,255.72 259.63,217.71 262.17,205.7C263.65,198.71 265.96,189.28 267.41,189.48C271.39,190.02 269.3,292.39 272.66,317.86C274.11,328.83 276.45,341.25 277.9,341.13C280.88,340.88 281.28,272.45 283.14,240.97C284.8,212.88 286.03,161.38 288.39,161.26C289.89,161.19 291.63,183.71 293.63,193C295.22,200.4 296.82,212.54 298.88,212.75C300.45,212.91 302.67,201.87 304.12,202.17C308.36,203.05 307.17,274.94 309.36,302.34C310.89,321.48 313.1,351.06 314.61,351.01C316.9,350.94 317.28,266.01 319.85,238.85C321.33,223.25 323.42,202.15 325.09,202.17C326.93,202.19 328.78,229.66 330.34,246.61C332.42,269.16 333.86,325.62 335.58,325.62C337.35,325.62 339.01,241.69 340.82,241.68C342.51,241.67 344.11,293.01 346.07,315.04C347.68,333.14 349.8,364.46 351.31,364.41C353.61,364.34 354.64,284.74 356.55,249.43C358.18,219.25 359.91,165.51 361.8,165.49C363.44,165.47 362.56,227.06 367.04,228.98C368.5,229.6 370.41,225.55 372.28,224.75C373.94,224.04 376.05,222.83 377.53,224.04C383.29,228.75 380.63,281.6 382.77,303.75C384.31,319.67 386.47,344.71 388.01,344.66C390.18,344.59 390.69,282.04 393.26,262.13C394.74,250.69 396.77,244.38 398.5,235.33C400.27,226.05 402.16,207.05 403.74,207.11C405.77,207.18 407.11,254.34 408.99,254.37C410.64,254.4 412.63,218.36 414.23,218.4C416.2,218.45 417.82,253.93 419.47,273.42C421.34,295.47 423.15,343.98 424.72,343.96C426.76,343.93 426.13,246.04 429.96,224.75C431.41,216.7 433.63,208.42 435.2,208.52C437.24,208.65 437.87,230.44 440.45,236.74C441.93,240.34 444.18,244.77 445.69,244.5C447.99,244.09 449.45,223.22 450.93,223.34C453.5,223.55 454.14,269.95 456.18,288.94C457.75,303.58 459.83,327.77 461.42,327.73C463.41,327.68 464.59,284.44 466.66,267.07C468.23,253.91 468.4,234.26 471.91,232.51C473.36,231.79 475.67,236.15 477.15,235.33C482.8,232.18 480.49,148.59 482.39,148.57C484.03,148.55 486.1,187.78 487.64,212.75C489.79,247.63 485.97,334.37 492.88,338.31C494.39,339.17 496.64,337.85 498.13,335.49C504.38,325.6 500.45,254 503.37,231.09C504.83,219.68 507.14,216.59 508.61,205.7C511.2,186.59 512.2,125.98 513.86,125.99C515.72,126 515.73,225.05 519.1,225.45C520.55,225.62 522.89,207.64 524.34,207.82C527.88,208.25 523.16,314.22 529.59,317.86C531.08,318.7 533.37,317.27 534.83,315.04C539.56,307.83 538.55,277.76 540.07,252.96C542.33,216 543.29,114.73 545.32,114.71C546.9,114.69 546.58,197.79 550.56,198.65C552.01,198.96 554.35,193.92 555.8,188.77C559.79,174.6 559.53,104.1 561.05,104.13C563.29,104.17 562.72,252.55 566.29,287.53C567.74,301.69 570,317.22 571.53,317.15C573.72,317.05 575.26,280.31 576.78,255.78C579.04,219.21 577.9,119.51 582.02,118.94C583.47,118.74 585.54,129.63 587.26,135.16C589.04,140.91 591.03,145.27 592.51,152.8C595.02,165.51 596.14,185.99 597.75,205C599.69,227.83 601.05,257.64 602.99,280.47C604.61,299.48 606.6,332.69 608.24,332.67C610.13,332.65 611.7,286.22 613.48,263.54C615.2,241.57 616.98,220.4 618.72,198.65C620.48,176.67 622.38,132.32 623.97,132.34C625.97,132.37 627.16,237.4 629.21,237.44C630.78,237.47 632.93,176.05 634.45,176.08C636.68,176.13 636.67,279.17 639.7,307.28C641.15,320.73 642.6,336.59 644.94,336.9C646.44,337.1 648.72,331.61 650.18,325.62C654.74,306.91 653.82,248.47 655.43,204.29C657.37,151.15 658.79,28.66 660.67,28.65C662.32,28.64 659.2,160.33 665.91,163.38C667.41,164.06 669.67,158.48 671.16,159.15C677.26,161.9 674.46,237.83 676.4,272.01C678.01,300.5 680.01,350.31 681.64,350.3C683.54,350.28 684.52,271.21 686.89,243.79C688.39,226.45 690.38,201.47 692.13,201.47C693.88,201.47 695.89,243.85 697.38,243.79C699.83,243.69 700.4,128.17 702.62,128.11C704.14,128.07 706.35,160.41 707.86,182.42C710.18,216.38 709.82,286.02 713.11,312.21C714.56,323.76 716.88,337.01 718.35,336.9C721.03,336.7 721.95,282.88 723.59,252.96C725.48,218.61 724.9,142.83 728.84,142.22C730.29,141.99 732.61,156.5 734.08,156.32C736.7,156 737.72,109.03 739.32,109.06C741.29,109.1 742.87,155.84 744.57,180.31C746.37,206.3 747.87,236.38 749.81,260.72C751.42,281.01 753.47,316.48 755.05,316.45C757.06,316.41 758.73,260.38 760.3,226.16C762.36,181.11 763.6,69.57 765.54,69.56C767.15,69.55 769.11,177.5 770.78,177.49C772.62,177.48 773.63,47.78 776.03,47.7C777.52,47.65 779.81,75.54 781.27,97.78C784.16,141.84 782.55,294.94 786.51,295.28C787.96,295.41 790.24,279.7 791.76,269.19Q794.03,253.48 797,209.93" style="vector-effect: none; fill: none; stroke: rgb(31, 119, 180); stroke-opacity: 1; stroke-width: 2px; opacity: 1;"/></g><g class="points"/><g class="text"/></g><g class="trace scatter trace856217" style="stroke-miterlimit: 2; opacity: 1;"><g class="fills"/><g class="errorbars"/><g class="lines"/><g class="points"><path class="point" transform="translate(660.67,28.65)" d="M7,0A7,7 0 1,1 0,-7A7,7 0 0,1 7,0Z" style="opacity: 1; stroke-width: 1.5px; fill: rgb(255, 127, 14); fill-opacity: 1; stroke: rgb(0, 0, 0); stroke-opacity: 1;"/></g><g class="text"><g class="textpoint" transform="translate(0,-13.75)"><text x="660.67" y="28.65" text-anchor="middle" style="font-family: Arial; font-size: 16px; fill: rgb(0, 0, 0); fill-opacity: 1; white-space: pre;">Peak</text></g></g></g><g class="trace scatter trace43bf52" style="stroke-miterlimit: 2; opacity: 1;"><g class="fills"/><g class="errorbars"/><g class="lines"/><g class="points"><path class="point" transform="translate(136.33,369.35)" d="M7,0A7,7 0 1,1 0,-7A7,7 0 0,1 7,0Z" style="opacity: 1; stroke-width: 1.5px; fill: rgb(214, 39, 40); fill-opacity: 1; stroke: rgb(0, 0, 0); stroke-opacity: 1;"/></g><g class="text"><g class="textpoint" transform="translate(0,21.75)"><text x="136.33" y="369.35" text-anchor="middle" style="font-family: Arial; font-size: 16px; fill: rgb(0, 0, 0); fill-opacity: 1; white-space: pre;">Lowest</text></g></g></g></g></g></g><path class="xlines-above crisp" d="M78,499H877" style="fill: none; stroke-width: 2px; stroke: rgb(0, 0, 0); stroke-opacity: 1;"/><path class="ylines-above crisp" d="M79,100V498" style="fill: none; stroke-width: 2px; stroke: rgb(0, 0, 0); stroke-opacity: 1;"/><g class="overlines-above"/><g class="xaxislayer-above"><g class="xtick"><text text-anchor="end" x="0" y="516.8" transform="translate(100.97,0) rotate(-45,0,509.79999999999995)" style="font-family: Arial; font-size: 14px; fill: rgb(0, 0, 0); fill-opacity: 1; white-space: pre; opacity: 1;"><tspan class="line" dy="0em" x="0" y="516.8">May 5</tspan><tspan class="line" dy="1.3em" x="0" y="516.8">2024</tspan></text></g><g class="xtick"><text text-anchor="end" x="0" y="516.8" style="font-family: Arial; font-size: 14px; fill: rgb(0, 0, 0); fill-opacity: 1; white-space: pre; opacity: 1;" transform="translate(174.38,0) rotate(-45,0,509.79999999999995)">May 19</text></g><g class="xtick"><text text-anchor="end" x="0" y="516.8" style="font-family: Arial; font-size: 14px; fill: rgb(0, 0, 0); fill-opacity: 1; white-space: pre; opacity: 1;" transform="translate(247.79,0) rotate(-45,0,509.79999999999995)">Jun 2</text></g><g class="xtick"><text text-anchor="end" x="0" y="516.8" style="font-family: Arial; font-size: 14px; fill: rgb(0, 0, 0); fill-opacity: 1; white-space: pre; opacity: 1;" transform="translate(321.2,0) rotate(-45,0,509.79999999999995)">Jun 16</text></g><g class="xtick"><text text-anchor="end" x="0" y="516.8" style="font-family: Arial; font-size: 14px; fill: rgb(0, 0, 0); fill-opacity: 1; white-space: pre; opacity: 1;" transform="translate(394.61,0) rotate(-45,0,509.79999999999995)">Jun 30</text></g><g class="xtick"><text text-anchor="end" x="0" y="516.8" style="font-family: Arial; font-size: 14px; fill: rgb(0, 0, 0); fill-opacity: 1; white-space: pre; opacity: 1;" transform="translate(468.01,0) rotate(-45,0,509.79999999999995)">Jul 14</text></g><g class="xtick"><text text-anchor="end" x="0" y="516.8" style="font-family: Arial; font-size: 14px; fill: rgb(0, 0, 0); fill-opacity: 1; white-space: pre; opacity: 1;" transform="translate(541.4200000000001,0) rotate(-45,0,509.79999999999995)">Jul 28</text></g><g class="xtick"><text text-anchor="end" x="0" y="516.8" style="font-family: Arial; font-size: 14px; fill: rgb(0, 0, 0); fill-opacity: 1; white-space: pre; opacity: 1;" transform="translate(614.83,0) rotate(-45,0,509.79999999999995)">Aug 11</text></g><g class="xtick"><text text-anchor="end" x="0" y="516.8" style="font-family: Arial; font-size: 14px; fill: rgb(0, 0, 0); fill-opacity: 1; white-space: pre; opacity: 1;" transform="translate(688.24,0) rotate(-45,0,509.79999999999995)">Aug 25</text></g><g class="xtick"><text text-anchor="end" x="0" y="516.8" style="font-family: Arial; font-size: 14px; fill: rgb(0, 0, 0); fill-opacity: 1; white-space: pre; opacity: 1;" transform="translate(761.64,0) rotate(-45,0,509.79999999999995)">Sep 8</text></g><g class="xtick"><text text-anchor="end" x="0" y="516.8" style="font-family: Arial; font-size: 14px; fill: rgb(0, 0, 0); fill-opacity: 1; white-space: pre; opacity: 1;" transform="translate(835.05,0) rotate(-45,0,509.79999999999995)">Sep 22</text></g></g><g class="yaxislayer-above"><g class="ytick"><text text-anchor="end" x="75.2" y="4.8999999999999995" transform="translate(0,476.4)" style="font-family: Arial; font-size: 14px; fill: rgb(0, 0, 0); fill-opacity: 1; white-space: pre; opacity: 1;">0</text></g><g class="ytick"><text text-anchor="end" x="75.2" y="4.8999999999999995" style="font-family: Arial; font-size: 14px; fill: rgb(0, 0, 0); fill-opacity: 1; white-space: pre; opacity: 1;" transform="translate(0,405.87)">100</text></g><g class="ytick"><text text-anchor="end" x="75.2" y="4.8999999999999995" style="font-family: Arial; font-size: 14px; fill: rgb(0, 0, 0); fill-opacity: 1; white-space: pre; opacity: 1;" transform="translate(0,335.33000000000004)">200</text></g><g class="ytick"><text text-anchor="end" x="75.2" y="4.8999999999999995" style="font-family: Arial; font-size: 14px; fill: rgb(0, 0, 0); fill-opacity: 1; white-space: pre; opacity: 1;" transform="translate(0,264.78999999999996)">300</text></g><g class="ytick"><text text-anchor="end" x="75.2" y="4.8999999999999995" style="font-family: Arial; font-size: 14px; fill: rgb(0, 0, 0); fill-opacity: 1; white-space: pre; opacity: 1;" transform="translate(0,194.25)">400</text></g><g class="ytick"><text text-anchor="end" x="75.2" y="4.8999999999999995" style="font-family: Arial; font-size: 14px; fill: rgb(0, 0, 0); fill-opacity: 1; white-space: pre; opacity: 1;" transform="translate(0,123.71000000000001)">500</text></g></g><g class="overaxes-above"/></g></g><g class="polarlayer"/><g class="smithlayer"/><g class="ternarylayer"/><g class="geolayer"/><g class="funnelarealayer"/><g class="pielayer"/><g class="iciclelayer"/><g class="treemaplayer"/><g class="sunburstlayer"/><g class="glimages"/><defs id="topdefs-131d28"><g class="clips"/><clipPath id="legend131d28"><rect width="95" height="53" x="0" y="0"/></clipPath></defs><g class="layer-above"><g class="imagelayer"/><g class="shapelayer"/></g><g class="infolayer"><g class="legend" pointer-events="all" transform="translate(892.94,100)"><rect class="bg" shape-rendering="crispEdges" style="stroke: rgb(68, 68, 68); stroke-opacity: 1; fill: rgb(255, 255, 255); fill-opacity: 0.8; stroke-width: 0px;" width="95" height="53" x="0" y="0"/><g class="scrollbox" transform="" clip-path="url(#legend131d28)"><g class="groups"><g class="traces" transform="translate(0,15.6)" style="opacity: 1;"><text class="legendtext" text-anchor="start" x="40" y="5.46" style="font-family: Arial; font-size: 14px; fill: rgb(0, 0, 0); fill-opacity: 1; white-space: pre;">Peak</text><g class="layers" style="opacity: 1;"><g class="legendfill"/><g class="legendlines"/><g class="legendsymbols"><g class="legendpoints"><path class="scatterpts" transform="translate(20,0)" d="M7,0A7,7 0 1,1 0,-7A7,7 0 0,1 7,0Z" style="opacity: 1; stroke-width: 1.5px; fill: rgb(255, 127, 14); fill-opacity: 1; stroke: rgb(0, 0, 0); stroke-opacity: 1;"/></g></g></g><rect class="legendtoggle" x="0" y="-10.6" width="90" height="21.2" style="fill: rgb(0, 0, 0); fill-opacity: 0;"/></g><g class="traces" transform="translate(0,36.8)" style="opacity: 1;"><text class="legendtext" text-anchor="start" x="40" y="5.46" style="font-family: Arial; font-size: 14px; fill: rgb(0, 0, 0); fill-opacity: 1; white-space: pre;">Lowest</text><g class="layers" style="opacity: 1;"><g class="legendfill"/><g class="legendlines"/><g class="legendsymbols"><g class="legendpoints"><path class="scatterpts" transform="translate(20,0)" d="M7,0A7,7 0 1,1 0,-7A7,7 0 0,1 7,0Z" style="opacity: 1; stroke-width: 1.5px; fill: rgb(214, 39, 40); fill-opacity: 1; stroke: rgb(0, 0, 0); stroke-opacity: 1;"/></g></g></g><rect class="legendtoggle" x="0" y="-10.6" width="90" height="21.2" style="fill: rgb(0, 0, 0); fill-opacity: 0;"/></g></g></g><rect class="scrollbar" rx="20" ry="3" width="0" height="0" style="fill: rgb(128, 139, 164); fill-opacity: 1;" x="0" y="0"/></g><g class="g-gtitle"><text class="gtitle" x="500" y="50" text-anchor="middle" dy="0em" style="opacity: 1; font-family: Arial; font-size: 28px; fill: rgb(0, 0, 0); fill-opacity: 1; white-space: pre;">Job Posting Trends Over Time</text></g><g class="g-xtitle"><text class="xtitle" x="478.5" y="586.7384765625" text-anchor="middle" style="opacity: 1; font-family: Arial; font-size: 19px; fill: rgb(0, 0, 0); fill-opacity: 1; white-space: pre;">Date Posted</text></g><g class="g-ytitle"><text class="ytitle" transform="rotate(-90,27.5375,299)" x="27.5375" y="299" text-anchor="middle" style="opacity: 1; font-family: Arial; font-size: 19px; fill: rgb(0, 0, 0); fill-opacity: 1; white-space: pre;">Job Postings</text></g></g></svg>